<?xml version="1.0" encoding="UTF-8"?>
<svg width="33px" height="47px" viewBox="0 0 33 47" version="1.1" xmlns="http://www.w3.org/2000/svg" xmlns:xlink="http://www.w3.org/1999/xlink">
    <!-- Generator: Sketch 59.1 (86144) - https://sketch.com -->
    <title>Group</title>
    <desc>Created with Sketch.</desc>
    <g id="Page-1" stroke="none" stroke-width="1" fill="none" fill-rule="evenodd">
        <g id="Group" transform="translate(2.000000, 0.000000)">
            <path d="M15.5173817,47 C24.0681957,47 31,40.2027286 31,31.8178694 C31,23.4330102 27.8843975,22.658315 20.714531,15.5862261 C16.8547866,11.7791182 15.3339196,6.58370949 16.1519301,0 C4.88442314,8.95325403 -0.487965762,19.5592105 0.0347633971,31.8178694 C0.392307434,40.2027286 6.96656772,47 15.5173817,47 Z" id="Oval" fill="#8B43A3"></path>
            <path d="M9.74683544,33.7974684 C15.129864,33.7974684 19.4936709,29.5895117 19.4936709,24.3987342 C19.4936709,19.2079566 15.129864,15 9.74683544,15 C4.36380687,15 0,19.2079566 0,24.3987342 C0,29.5895117 4.36380687,33.7974684 9.74683544,33.7974684 Z M16.6685152,31.5495625 L27.969138,41.9359177" id="Magnifier" stroke="#FFFFFF" stroke-width="4"></path>
        </g>
    </g>
</svg>